<svg width="25" height="25" viewBox="0 0 25 25" fill="none" xmlns="http://www.w3.org/2000/svg">
<path d="M12.5 2.08333C13.0753 2.08333 13.5416 2.5497 13.5416 3.125L13.5416 14.1519L16.9717 10.7218C17.3785 10.315 18.0381 10.315 18.4449 10.7218C18.8517 11.1286 18.8517 11.7881 18.4449 12.1949L13.2382 17.4016L13.2225 17.4171C13.0359 17.5968 12.7824 17.7075 12.5031 17.7083L12.5 17.7083L12.4969 17.7083C12.3573 17.7079 12.2243 17.6801 12.1028 17.6299C11.9794 17.5791 11.8637 17.5035 11.7634 17.4032L6.55508 12.1949C6.14828 11.7881 6.14828 11.1286 6.55508 10.7218C6.96187 10.315 7.62142 10.315 8.02822 10.7218L11.4583 14.1519L11.4583 3.125C11.4583 2.5497 11.9247 2.08333 12.5 2.08333Z" fill="white"/>
<path d="M4.16665 17.7083C4.16665 17.133 3.70028 16.6667 3.12498 16.6667C2.54968 16.6667 2.08331 17.133 2.08331 17.7083V20.8333C2.08331 21.9839 3.01605 22.9167 4.16665 22.9167H20.8333C21.9839 22.9167 22.9166 21.9839 22.9166 20.8333V17.7083C22.9166 17.133 22.4503 16.6667 21.875 16.6667C21.2997 16.6667 20.8333 17.133 20.8333 17.7083V20.8333H4.16665V17.7083Z" fill="white"/>
</svg>
