<svg width="30" height="30" viewBox="0 0 30 30" fill="none" xmlns="http://www.w3.org/2000/svg">
<path fill-rule="evenodd" clip-rule="evenodd" d="M0 4.5C0 2.01472 2.01472 0 4.5 0H25.5C27.9853 0 30 2.01472 30 4.5V25.5C30 27.9853 27.9853 30 25.5 30H4.5C2.01472 30 0 27.9853 0 25.5V4.5ZM8.25 12C10.3211 12 12 10.3211 12 8.25C12 6.17893 10.3211 4.5 8.25 4.5C6.17893 4.5 4.5 6.17893 4.5 8.25C4.5 10.3211 6.17893 12 8.25 12ZM12.5303 17.0303L15.75 20.25L24.2197 11.7803C24.6921 11.3079 25.5 11.6425 25.5 12.3107V25.5H4.5V24L11.4697 17.0303C11.7626 16.7374 12.2374 16.7374 12.5303 17.0303Z" fill="white"/>
</svg>
